<svg width="451" height="332" viewBox="0 0 451 332" fill="none" xmlns="http://www.w3.org/2000/svg">
<rect x="1" y="1" width="449" height="330" rx="11" fill="white" stroke="black" stroke-width="2"/>
<rect x="114" y="53" width="222" height="227" rx="7" fill="black" stroke="black" stroke-width="2"/>
<rect x="115" y="54" width="221" height="221" rx="7" fill="white" stroke="black" stroke-width="2"/>
<rect x="105" y="44" width="241" height="246" rx="7" stroke="black" stroke-width="2"/>
<circle cx="134.5" cy="73.5" r="9.5" fill="white" stroke="black" stroke-width="2"/>
<circle cx="134.5" cy="99.5" r="9.5" fill="white" stroke="black" stroke-width="2"/>
<circle cx="134.5" cy="125.5" r="9.5" fill="black" stroke="black" stroke-width="2"/>
<circle cx="134.5" cy="151.5" r="9.5" fill="white" stroke="black" stroke-width="2"/>
<circle cx="134.5" cy="177.5" r="9.5" fill="white" stroke="black" stroke-width="2"/>
<circle cx="134.5" cy="203.5" r="9.5" fill="white" stroke="black" stroke-width="2"/>
<circle cx="134.5" cy="229.5" r="9.5" fill="white" stroke="black" stroke-width="2"/>
<circle cx="134.5" cy="255.5" r="9.5" fill="white" stroke="black" stroke-width="2"/>
<circle cx="160.5" cy="73.5" r="9.5" fill="white" stroke="black" stroke-width="2"/>
<circle cx="160.5" cy="99.5" r="9.5" fill="white" stroke="black" stroke-width="2"/>
<circle cx="160.5" cy="125.5" r="9.5" fill="white" stroke="black" stroke-width="2"/>
<circle cx="160.5" cy="151.5" r="9.5" fill="white" stroke="black" stroke-width="2"/>
<circle cx="160.5" cy="177.5" r="9.5" fill="white" stroke="black" stroke-width="2"/>
<circle cx="160.5" cy="203.5" r="9.5" fill="white" stroke="black" stroke-width="2"/>
<circle cx="160.5" cy="229.5" r="9.5" fill="white" stroke="black" stroke-width="2"/>
<circle cx="160.5" cy="255.5" r="9.5" fill="white" stroke="black" stroke-width="2"/>
<circle cx="186.5" cy="73.5" r="9.5" fill="white" stroke="black" stroke-width="2"/>
<circle cx="186.5" cy="99.5" r="9.5" fill="white" stroke="black" stroke-width="2"/>
<circle cx="186.5" cy="125.5" r="9.5" fill="white" stroke="black" stroke-width="2"/>
<circle cx="186.5" cy="151.5" r="9.5" fill="white" stroke="black" stroke-width="2"/>
<circle cx="186.5" cy="177.5" r="9.5" fill="white" stroke="black" stroke-width="2"/>
<circle cx="186.5" cy="203.5" r="9.5" fill="white" stroke="black" stroke-width="2"/>
<circle cx="186.5" cy="229.5" r="9.5" fill="white" stroke="black" stroke-width="2"/>
<circle cx="186.5" cy="255.5" r="9.5" fill="white" stroke="black" stroke-width="2"/>
<circle cx="212.5" cy="73.5" r="9.5" fill="white" stroke="black" stroke-width="2"/>
<circle cx="212.5" cy="99.5" r="9.5" fill="white" stroke="black" stroke-width="2"/>
<circle cx="212.5" cy="125.5" r="9.5" fill="white" stroke="black" stroke-width="2"/>
<circle cx="212.5" cy="151.5" r="9.5" fill="white" stroke="black" stroke-width="2"/>
<circle cx="212.5" cy="177.5" r="9.5" fill="white" stroke="black" stroke-width="2"/>
<circle cx="212.5" cy="203.5" r="9.5" fill="white" stroke="black" stroke-width="2"/>
<circle cx="212.5" cy="229.5" r="9.5" fill="white" stroke="black" stroke-width="2"/>
<circle cx="212.5" cy="255.5" r="9.5" fill="white" stroke="black" stroke-width="2"/>
<circle cx="238.5" cy="73.5" r="9.5" fill="white" stroke="black" stroke-width="2"/>
<circle cx="238.5" cy="99.5" r="9.5" fill="white" stroke="black" stroke-width="2"/>
<circle cx="238.5" cy="125.5" r="9.5" fill="white" stroke="black" stroke-width="2"/>
<circle cx="238.5" cy="151.5" r="9.5" fill="white" stroke="black" stroke-width="2"/>
<circle cx="238.5" cy="177.5" r="9.5" fill="white" stroke="black" stroke-width="2"/>
<circle cx="238.5" cy="203.5" r="9.5" fill="white" stroke="black" stroke-width="2"/>
<circle cx="238.5" cy="229.5" r="9.5" fill="white" stroke="black" stroke-width="2"/>
<circle cx="238.5" cy="255.5" r="9.5" fill="white" stroke="black" stroke-width="2"/>
<circle cx="264.5" cy="73.5" r="9.5" fill="white" stroke="black" stroke-width="2"/>
<circle cx="264.5" cy="99.5" r="9.5" fill="white" stroke="black" stroke-width="2"/>
<circle cx="264.5" cy="125.5" r="9.5" fill="white" stroke="black" stroke-width="2"/>
<circle cx="264.5" cy="151.5" r="9.5" fill="white" stroke="black" stroke-width="2"/>
<circle cx="264.5" cy="177.5" r="9.5" fill="white" stroke="black" stroke-width="2"/>
<circle cx="264.5" cy="203.5" r="9.5" fill="black" stroke="black" stroke-width="2"/>
<circle cx="264.5" cy="229.5" r="9.5" fill="white" stroke="black" stroke-width="2"/>
<circle cx="264.5" cy="255.5" r="9.5" fill="white" stroke="black" stroke-width="2"/>
<circle cx="290.5" cy="73.5" r="9.5" fill="white" stroke="black" stroke-width="2"/>
<circle cx="290.5" cy="99.5" r="9.5" fill="white" stroke="black" stroke-width="2"/>
<circle cx="290.5" cy="125.5" r="9.5" fill="white" stroke="black" stroke-width="2"/>
<circle cx="290.5" cy="151.5" r="9.5" fill="white" stroke="black" stroke-width="2"/>
<circle cx="290.5" cy="177.5" r="9.5" fill="white" stroke="black" stroke-width="2"/>
<circle cx="290.5" cy="203.5" r="9.5" fill="white" stroke="black" stroke-width="2"/>
<circle cx="290.5" cy="229.5" r="9.5" fill="white" stroke="black" stroke-width="2"/>
<circle cx="290.5" cy="255.5" r="9.5" fill="white" stroke="black" stroke-width="2"/>
<circle cx="316.5" cy="73.5" r="9.5" fill="white" stroke="black" stroke-width="2"/>
<circle cx="316.5" cy="99.5" r="9.5" fill="white" stroke="black" stroke-width="2"/>
<circle cx="316.5" cy="125.5" r="9.5" fill="white" stroke="black" stroke-width="2"/>
<circle cx="316.5" cy="151.5" r="9.5" fill="white" stroke="black" stroke-width="2"/>
<circle cx="316.5" cy="177.5" r="9.5" fill="white" stroke="black" stroke-width="2"/>
<circle cx="316.5" cy="203.5" r="9.5" fill="white" stroke="black" stroke-width="2"/>
<circle cx="316.5" cy="229.5" r="9.5" fill="white" stroke="black" stroke-width="2"/>
<circle cx="316.5" cy="255.5" r="9.5" fill="white" stroke="black" stroke-width="2"/>
<circle cx="58" cy="104" r="29" fill="white" stroke="black" stroke-width="2"/>
<circle cx="58" cy="221" r="29" fill="white" stroke="black" stroke-width="2"/>
<rect width="25" height="15" transform="translate(46 127)" fill="white"/>
<path d="M56.7841 130.273H57.8409V136.051C57.8409 136.648 57.7003 137.18 57.419 137.649C57.1406 138.115 56.7472 138.483 56.2386 138.753C55.7301 139.02 55.1335 139.153 54.4489 139.153C53.7642 139.153 53.1676 139.02 52.6591 138.753C52.1506 138.483 51.7557 138.115 51.4744 137.649C51.196 137.18 51.0568 136.648 51.0568 136.051V130.273H52.1136V135.966C52.1136 136.392 52.2074 136.771 52.3949 137.104C52.5824 137.433 52.8494 137.693 53.196 137.884C53.5455 138.071 53.9631 138.165 54.4489 138.165C54.9347 138.165 55.3523 138.071 55.7017 137.884C56.0511 137.693 56.3182 137.433 56.5028 137.104C56.6903 136.771 56.7841 136.392 56.7841 135.966V130.273ZM59.9513 139V130.273H62.9002C63.5849 130.273 64.1445 130.396 64.5792 130.643C65.0167 130.888 65.3406 131.219 65.5508 131.636C65.761 132.054 65.8661 132.52 65.8661 133.034C65.8661 133.548 65.761 134.016 65.5508 134.436C65.3434 134.857 65.0224 135.192 64.5877 135.442C64.1531 135.689 63.5962 135.812 62.9173 135.812H60.8036V134.875H62.8832C63.3519 134.875 63.7283 134.794 64.0124 134.632C64.2965 134.47 64.5025 134.251 64.6303 133.976C64.761 133.697 64.8263 133.384 64.8263 133.034C64.8263 132.685 64.761 132.372 64.6303 132.097C64.5025 131.821 64.2951 131.605 64.0082 131.449C63.7212 131.29 63.3406 131.21 62.8661 131.21H61.0082V139H59.9513Z" fill="black"/>
<rect width="37" height="15" transform="translate(40 244)" fill="white"/>
<path d="M45.0568 256V247.273H46.1136V255.062H50.1705V256H45.0568ZM51.8068 256V247.273H57.0739V248.21H52.8636V251.159H56.8011V252.097H52.8636V255.062H57.142V256H51.8068ZM58.9787 256V247.273H64.2116V248.21H60.0355V251.159H63.8196V252.097H60.0355V256H58.9787ZM65.5444 248.21V247.273H72.0898V248.21H69.3455V256H68.2887V248.21H65.5444Z" fill="black"/>
<circle cx="58" cy="104" r="19" fill="black" stroke="black" stroke-width="2"/>
<circle cx="58" cy="221" r="19" fill="black" stroke="black" stroke-width="2"/>
<circle cx="58" cy="102" r="17" fill="white" stroke="black" stroke-width="2"/>
<circle cx="58" cy="219" r="17" fill="white" stroke="black" stroke-width="2"/>
<circle cx="393" cy="103" r="29" fill="white" stroke="black" stroke-width="2"/>
<circle cx="393" cy="220" r="29" fill="white" stroke="black" stroke-width="2"/>
<rect width="47" height="15" transform="translate(370 126)" fill="white"/>
<path d="M377.75 138H375.057V129.273H377.869C378.716 129.273 379.44 129.447 380.043 129.797C380.645 130.143 381.107 130.642 381.428 131.293C381.749 131.94 381.909 132.716 381.909 133.619C381.909 134.528 381.747 135.311 381.423 135.967C381.099 136.621 380.628 137.124 380.009 137.476C379.389 137.825 378.636 138 377.75 138ZM376.114 137.062H377.682C378.403 137.062 379.001 136.923 379.476 136.645C379.95 136.366 380.304 135.97 380.537 135.456C380.77 134.942 380.886 134.33 380.886 133.619C380.886 132.915 380.771 132.308 380.541 131.8C380.311 131.288 379.967 130.896 379.51 130.624C379.053 130.348 378.483 130.21 377.801 130.21H376.114V137.062ZM391.045 133.636C391.045 134.557 390.879 135.352 390.547 136.023C390.214 136.693 389.759 137.21 389.179 137.574C388.599 137.938 387.938 138.119 387.193 138.119C386.449 138.119 385.787 137.938 385.207 137.574C384.628 137.21 384.172 136.693 383.839 136.023C383.507 135.352 383.341 134.557 383.341 133.636C383.341 132.716 383.507 131.92 383.839 131.25C384.172 130.58 384.628 130.062 385.207 129.699C385.787 129.335 386.449 129.153 387.193 129.153C387.938 129.153 388.599 129.335 389.179 129.699C389.759 130.062 390.214 130.58 390.547 131.25C390.879 131.92 391.045 132.716 391.045 133.636ZM390.023 133.636C390.023 132.881 389.896 132.243 389.643 131.723C389.393 131.203 389.054 130.81 388.625 130.543C388.199 130.276 387.722 130.142 387.193 130.142C386.665 130.142 386.186 130.276 385.757 130.543C385.331 130.81 384.991 131.203 384.739 131.723C384.489 132.243 384.364 132.881 384.364 133.636C384.364 134.392 384.489 135.03 384.739 135.55C384.991 136.07 385.331 136.463 385.757 136.73C386.186 136.997 386.665 137.131 387.193 137.131C387.722 137.131 388.199 136.997 388.625 136.73C389.054 136.463 389.393 136.07 389.643 135.55C389.896 135.03 390.023 134.392 390.023 133.636ZM394.408 138L392.021 129.273H393.095L394.919 136.381H395.004L396.862 129.273H398.055L399.913 136.381H399.999L401.822 129.273H402.896L400.51 138H399.419L397.493 131.045H397.425L395.499 138H394.408ZM411.134 129.273V138H410.111L405.355 131.148H405.27V138H404.213V129.273H405.236L410.009 136.142H410.094V129.273H411.134Z" fill="black"/>
<rect width="45" height="15" transform="translate(370 243)" fill="white"/>
<path d="M375.057 255V246.273H378.006C378.688 246.273 379.247 246.389 379.685 246.622C380.122 246.852 380.446 247.169 380.656 247.572C380.866 247.976 380.972 248.435 380.972 248.949C380.972 249.463 380.866 249.919 380.656 250.317C380.446 250.714 380.124 251.027 379.689 251.254C379.254 251.479 378.699 251.591 378.023 251.591H375.636V250.636H377.989C378.455 250.636 378.83 250.568 379.114 250.432C379.401 250.295 379.608 250.102 379.736 249.852C379.866 249.599 379.932 249.298 379.932 248.949C379.932 248.599 379.866 248.294 379.736 248.033C379.605 247.771 379.396 247.57 379.109 247.428C378.822 247.283 378.443 247.21 377.972 247.21H376.114V255H375.057ZM379.165 251.08L381.312 255H380.085L377.972 251.08H379.165ZM383.789 246.273V255H382.733V246.273H383.789ZM391.874 249C391.781 248.713 391.657 248.456 391.504 248.229C391.353 247.999 391.173 247.803 390.962 247.641C390.755 247.479 390.519 247.355 390.255 247.27C389.991 247.185 389.701 247.142 389.386 247.142C388.869 247.142 388.398 247.276 387.975 247.543C387.552 247.81 387.215 248.203 386.965 248.723C386.715 249.243 386.59 249.881 386.59 250.636C386.59 251.392 386.717 252.03 386.969 252.55C387.222 253.07 387.565 253.463 387.996 253.73C388.428 253.997 388.914 254.131 389.454 254.131C389.954 254.131 390.394 254.024 390.775 253.811C391.158 253.595 391.457 253.291 391.67 252.899C391.886 252.504 391.994 252.04 391.994 251.506L392.317 251.574H389.692V250.636H393.016V251.574C393.016 252.293 392.863 252.918 392.556 253.449C392.252 253.98 391.832 254.392 391.295 254.685C390.761 254.974 390.147 255.119 389.454 255.119C388.681 255.119 388.002 254.938 387.417 254.574C386.835 254.21 386.38 253.693 386.053 253.023C385.729 252.352 385.567 251.557 385.567 250.636C385.567 249.946 385.66 249.325 385.844 248.774C386.032 248.22 386.296 247.749 386.637 247.359C386.978 246.97 387.381 246.672 387.847 246.464C388.313 246.257 388.826 246.153 389.386 246.153C389.846 246.153 390.275 246.223 390.673 246.362C391.073 246.499 391.43 246.693 391.742 246.946C392.058 247.196 392.32 247.496 392.531 247.845C392.741 248.192 392.886 248.577 392.965 249H391.874ZM394.826 255V246.273H395.883V250.159H400.537V246.273H401.593V255H400.537V251.097H395.883V255H394.826ZM403.232 247.21V246.273H409.777V247.21H407.033V255H405.976V247.21H403.232Z" fill="black"/>
<rect width="53" height="15" transform="translate(199 284)" fill="white"/>
<path d="M204.057 287.273H205.318L208.284 294.517H208.386L211.352 287.273H212.614V296H211.625V289.369H211.54L208.812 296H207.858L205.131 289.369H205.045V296H204.057V287.273ZM215.091 296H213.983L217.187 287.273H218.278L221.483 296H220.375L217.767 288.653H217.699L215.091 296ZM215.5 292.591H219.966V293.528H215.5V292.591ZM221.345 288.21V287.273H227.891V288.21H225.146V296H224.089V288.21H221.345ZM229.522 296V287.273H232.471C233.152 287.273 233.712 287.389 234.15 287.622C234.587 287.852 234.911 288.169 235.121 288.572C235.331 288.976 235.436 289.435 235.436 289.949C235.436 290.463 235.331 290.919 235.121 291.317C234.911 291.714 234.588 292.027 234.154 292.254C233.719 292.479 233.164 292.591 232.488 292.591H230.101V291.636H232.453C232.919 291.636 233.294 291.568 233.578 291.432C233.865 291.295 234.073 291.102 234.201 290.852C234.331 290.599 234.397 290.298 234.397 289.949C234.397 289.599 234.331 289.294 234.201 289.033C234.07 288.771 233.861 288.57 233.574 288.428C233.287 288.283 232.908 288.21 232.436 288.21H230.578V296H229.522ZM233.63 292.08L235.777 296H234.55L232.436 292.08H233.63ZM238.254 287.273V296H237.197V287.273H238.254ZM240.885 287.273L243.135 290.903H243.203L245.453 287.273H246.697L243.953 291.636L246.697 296H245.453L243.203 292.438H243.135L240.885 296H239.64L242.453 291.636L239.64 287.273H240.885Z" fill="black"/>
<circle cx="393" cy="103" r="19" fill="black" stroke="black" stroke-width="2"/>
<circle cx="393" cy="220" r="19" fill="black" stroke="black" stroke-width="2"/>
<circle cx="393" cy="101" r="17" fill="white" stroke="black" stroke-width="2"/>
<circle cx="393" cy="218" r="17" fill="white" stroke="black" stroke-width="2"/>
</svg>
