<svg width="451" height="332" viewBox="0 0 451 332" fill="none" xmlns="http://www.w3.org/2000/svg">
<rect x="1" y="1" width="449" height="330" rx="11" fill="white" stroke="black" stroke-width="2"/>
<rect x="71" y="22" width="42.6809" height="65.4772" rx="5" fill="black" stroke="black" stroke-width="2"/>
<rect x="71" y="22" width="42.6809" height="61.8298" rx="5" fill="white" stroke="black" stroke-width="2"/>
<path d="M103.255 28.2949H87.3605L85.0003 30.4199L89.0147 34.8784H100.304L105.207 30.4633L103.255 28.2949Z" fill="black"/>
<path d="M100.483 74.1188L96.8417 70.0752H85.3319L80.5116 74.4154L82.5315 76.6588H97.6617L100.483 74.1188Z" fill="black"/>
<path d="M103.21 53.9778L99.6557 57.178L99.5728 57.0858L98.4035 68.2106L102.272 72.5074L104.812 70.2207L106.173 57.269L103.21 53.9778Z" fill="black"/>
<path d="M101.736 36.5067L106.658 32.0748L108.595 34.2266L107.205 47.4515L103.552 50.741L100.669 47.5391L100.567 47.6313L101.736 36.5067Z" fill="black"/>
<path d="M78.4173 57.3067L77.0261 70.5439L79.061 72.8039L83.8628 68.4804L85.0586 57.1025L84.9749 57.178L82.1028 53.9883L78.4173 57.3067Z" fill="black"/>
<path d="M79.454 47.4419L80.8504 34.1565L83.2106 32.0314L87.225 36.4899L86.0557 47.6146L85.9878 47.5391L82.4278 50.7446L79.454 47.4419Z" fill="black"/>
<path d="M83.8758 52.3587L87.4387 49.1506L87.3557 49.0585H98.9816L98.8792 49.1506L101.768 52.3586L98.2049 55.5666L98.2728 55.642H86.6805L86.7642 55.5666L83.8758 52.3587Z" fill="black"/>
<rect x="122.063" y="22" width="42.6809" height="65.4772" rx="5" fill="black" stroke="black" stroke-width="2"/>
<rect x="122.063" y="22" width="42.6809" height="61.8298" rx="5" fill="white" stroke="black" stroke-width="2"/>
<path d="M154.318 28.2949H138.424L136.064 30.4199L140.078 34.8784H151.367L156.27 30.4633L154.318 28.2949Z" fill="black"/>
<path d="M151.546 74.1188L147.905 70.0752H136.395L131.575 74.4154L133.595 76.6588H148.725L151.546 74.1188Z" fill="black"/>
<path d="M154.273 53.9778L150.719 57.178L150.636 57.0858L149.467 68.2106L153.336 72.5074L155.876 70.2207L157.237 57.269L154.273 53.9778Z" fill="black"/>
<path d="M152.799 36.5067L157.721 32.0748L159.659 34.2266L158.269 47.4515L154.615 50.741L151.732 47.5391L151.63 47.6313L152.799 36.5067Z" fill="black"/>
<path d="M129.481 57.3067L128.09 70.5439L130.125 72.8039L134.926 68.4804L136.122 57.1025L136.038 57.178L133.166 53.9883L129.481 57.3067Z" fill="black"/>
<path d="M130.518 47.4419L131.914 34.1565L134.274 32.0314L138.288 36.4899L137.119 47.6146L137.051 47.5391L133.491 50.7446L130.518 47.4419Z" fill="black"/>
<path d="M134.939 52.3587L138.502 49.1506L138.419 49.0585H150.045L149.943 49.1506L152.831 52.3586L149.268 55.5666L149.336 55.642H137.744L137.828 55.5666L134.939 52.3587Z" fill="black"/>
<rect x="173.128" y="22" width="42.6809" height="65.4772" rx="5" fill="black" stroke="black" stroke-width="2"/>
<rect x="173.128" y="22" width="42.6809" height="61.8298" rx="5" fill="white" stroke="black" stroke-width="2"/>
<path d="M205.382 28.2949H189.488L187.128 30.4199L191.143 34.8784H202.432L207.335 30.4633L205.382 28.2949Z" fill="black"/>
<path d="M202.611 74.1188L198.97 70.0752H187.46L182.64 74.4154L184.659 76.6588H199.79L202.611 74.1188Z" fill="black"/>
<path d="M205.338 53.9778L201.784 57.178L201.701 57.0858L200.531 68.2106L204.4 72.5074L206.94 70.2207L208.301 57.269L205.338 53.9778Z" fill="black"/>
<path d="M203.864 36.5067L208.786 32.0748L210.723 34.2266L209.333 47.4515L205.68 50.741L202.797 47.5391L202.695 47.6313L203.864 36.5067Z" fill="black"/>
<path d="M180.545 57.3067L179.154 70.5439L181.189 72.8039L185.991 68.4804L187.187 57.1025L187.103 57.178L184.231 53.9883L180.545 57.3067Z" fill="black"/>
<path d="M181.582 47.4419L182.978 34.1565L185.338 32.0314L189.353 36.4899L188.184 47.6146L188.116 47.5391L184.556 50.7446L181.582 47.4419Z" fill="black"/>
<path d="M186.004 52.3587L189.567 49.1506L189.484 49.0585H201.109L201.007 49.1506L203.896 52.3586L200.333 55.5666L200.401 55.642H188.808L188.892 55.5666L186.004 52.3587Z" fill="black"/>
<rect x="224.191" y="22" width="42.6809" height="65.4772" rx="5" fill="black" stroke="black" stroke-width="2"/>
<rect x="224.191" y="22" width="42.6809" height="61.8298" rx="5" fill="white" stroke="black" stroke-width="2"/>
<path d="M256.446 28.2949H240.552L238.192 30.4199L242.206 34.8784H253.495L258.398 30.4633L256.446 28.2949Z" fill="black"/>
<path d="M253.674 74.1188L250.033 70.0752H238.523L233.703 74.4154L235.723 76.6588H250.853L253.674 74.1188Z" fill="black"/>
<path d="M256.402 53.9778L252.847 57.178L252.764 57.0858L251.595 68.2106L255.464 72.5074L258.004 70.2207L259.365 57.269L256.402 53.9778Z" fill="black"/>
<path d="M254.927 36.5067L259.849 32.0748L261.787 34.2266L260.397 47.4515L256.743 50.741L253.86 47.5391L253.758 47.6313L254.927 36.5067Z" fill="black"/>
<path d="M231.609 57.3067L230.217 70.5439L232.252 72.8039L237.054 68.4804L238.25 57.1025L238.166 57.178L235.294 53.9883L231.609 57.3067Z" fill="black"/>
<path d="M232.645 47.4419L234.042 34.1565L236.402 32.0314L240.416 36.4899L239.247 47.6146L239.179 47.5391L235.619 50.7446L232.645 47.4419Z" fill="black"/>
<path d="M237.067 52.3587L240.63 49.1506L240.547 49.0585H252.173L252.071 49.1506L254.959 52.3586L251.396 55.5666L251.464 55.642H239.872L239.956 55.5666L237.067 52.3587Z" fill="black"/>
<rect x="275.255" y="22" width="42.6809" height="65.4772" rx="5" fill="black" stroke="black" stroke-width="2"/>
<rect x="275.255" y="22" width="42.6809" height="61.8298" rx="5" fill="white" stroke="black" stroke-width="2"/>
<path d="M307.51 28.2949H291.616L289.255 30.4199L293.27 34.8784H304.559L309.462 30.4633L307.51 28.2949Z" fill="black"/>
<path d="M304.738 74.1188L301.097 70.0752H289.587L284.767 74.4154L286.787 76.6588H301.917L304.738 74.1188Z" fill="black"/>
<path d="M307.465 53.9778L303.911 57.178L303.828 57.0858L302.659 68.2106L306.528 72.5074L309.067 70.2207L310.429 57.269L307.465 53.9778Z" fill="black"/>
<path d="M305.991 36.5067L310.913 32.0748L312.851 34.2266L311.461 47.4515L307.807 50.741L304.924 47.5391L304.822 47.6313L305.991 36.5067Z" fill="black"/>
<path d="M282.672 57.3067L281.281 70.5439L283.316 72.8039L288.118 68.4804L289.314 57.1025L289.23 57.178L286.358 53.9883L282.672 57.3067Z" fill="black"/>
<path d="M283.709 47.4419L285.106 34.1565L287.466 32.0314L291.48 36.4899L290.311 47.6146L290.243 47.5391L286.683 50.7446L283.709 47.4419Z" fill="black"/>
<path d="M288.131 52.3587L291.694 49.1506L291.611 49.0585H303.237L303.134 49.1506L306.023 52.3586L302.46 55.5666L302.528 55.642H290.936L291.019 55.5666L288.131 52.3587Z" fill="black"/>
<rect x="326.319" y="22" width="42.6809" height="65.4772" rx="5" fill="black" stroke="black" stroke-width="2"/>
<rect x="326.319" y="22" width="42.6809" height="61.8298" rx="5" fill="white" stroke="black" stroke-width="2"/>
<path d="M358.574 28.2949H342.68L340.319 30.4199L344.334 34.8784H355.623L360.526 30.4633L358.574 28.2949Z" fill="black"/>
<path d="M355.802 74.1188L352.161 70.0752H340.651L335.831 74.4154L337.851 76.6588H352.981L355.802 74.1188Z" fill="black"/>
<path d="M358.529 53.9778L354.975 57.178L354.892 57.0858L353.723 68.2106L357.592 72.5074L360.131 70.2207L361.493 57.269L358.529 53.9778Z" fill="black"/>
<path d="M357.055 36.5067L361.977 32.0748L363.914 34.2266L362.524 47.4515L358.871 50.741L355.988 47.5391L355.886 47.6313L357.055 36.5067Z" fill="black"/>
<path d="M333.736 57.3067L332.345 70.5439L334.38 72.8039L339.182 68.4804L340.377 57.1025L340.294 57.178L337.422 53.9883L333.736 57.3067Z" fill="black"/>
<path d="M334.773 47.4419L336.169 34.1565L338.53 32.0314L342.544 36.4899L341.375 47.6146L341.307 47.5391L337.747 50.7446L334.773 47.4419Z" fill="black"/>
<path d="M339.195 52.3587L342.758 49.1506L342.675 49.0585H354.301L354.198 49.1506L357.087 52.3586L353.524 55.5666L353.592 55.642H342L342.083 55.5666L339.195 52.3587Z" fill="black"/>
<rect x="81" y="110" width="59.9295" height="58.6118" rx="7" fill="black" stroke="black" stroke-width="2"/>
<rect x="82.3174" y="110" width="57.2942" height="53.3412" rx="7" fill="white" stroke="black" stroke-width="2"/>
<path d="M116.229 121.909V151H110.078V127.747H109.908L103.246 131.923V126.469L110.448 121.909H116.229Z" fill="black"/>
<rect x="154" y="110" width="59.9295" height="58.6118" rx="7" fill="black" stroke="black" stroke-width="2"/>
<rect x="155.317" y="110" width="57.2942" height="53.3412" rx="7" fill="white" stroke="black" stroke-width="2"/>
<path d="M173.76 151V146.568L184.115 136.98C184.996 136.128 185.735 135.361 186.331 134.679C186.937 133.997 187.397 133.33 187.709 132.676C188.022 132.013 188.178 131.298 188.178 130.531C188.178 129.679 187.984 128.945 187.596 128.33C187.207 127.705 186.677 127.226 186.005 126.895C185.332 126.554 184.57 126.384 183.718 126.384C182.828 126.384 182.051 126.563 181.388 126.923C180.725 127.283 180.214 127.799 179.854 128.472C179.494 129.144 179.314 129.944 179.314 130.872H173.476C173.476 128.969 173.907 127.316 174.769 125.915C175.631 124.513 176.838 123.429 178.391 122.662C179.944 121.895 181.734 121.511 183.76 121.511C185.844 121.511 187.657 121.881 189.201 122.619C190.754 123.348 191.961 124.362 192.823 125.659C193.685 126.956 194.115 128.443 194.115 130.119C194.115 131.218 193.898 132.302 193.462 133.372C193.036 134.442 192.274 135.631 191.175 136.938C190.077 138.235 188.528 139.793 186.53 141.611L182.283 145.773V145.972H194.499V151H173.76Z" fill="black"/>
<rect x="227" y="110" width="59.9295" height="58.6118" rx="7" fill="black" stroke="black" stroke-width="2"/>
<rect x="228.317" y="110" width="57.2942" height="53.3412" rx="7" fill="white" stroke="black" stroke-width="2"/>
<path d="M256.927 151.398C254.806 151.398 252.917 151.033 251.26 150.304C249.612 149.565 248.31 148.552 247.353 147.264C246.406 145.967 245.919 144.471 245.89 142.776H252.083C252.121 143.486 252.353 144.111 252.779 144.651C253.215 145.181 253.793 145.593 254.512 145.886C255.232 146.18 256.042 146.327 256.941 146.327C257.879 146.327 258.708 146.161 259.427 145.83C260.147 145.498 260.71 145.039 261.118 144.452C261.525 143.865 261.728 143.187 261.728 142.42C261.728 141.644 261.511 140.957 261.075 140.361C260.649 139.755 260.033 139.281 259.228 138.94C258.433 138.599 257.486 138.429 256.387 138.429H253.674V133.912H256.387C257.315 133.912 258.135 133.751 258.845 133.429C259.565 133.107 260.123 132.662 260.521 132.094C260.919 131.516 261.118 130.844 261.118 130.077C261.118 129.348 260.942 128.708 260.592 128.159C260.251 127.6 259.768 127.165 259.143 126.852C258.528 126.54 257.808 126.384 256.984 126.384C256.151 126.384 255.388 126.535 254.697 126.838C254.006 127.132 253.452 127.553 253.035 128.102C252.618 128.652 252.396 129.295 252.368 130.034H246.473C246.501 128.358 246.979 126.881 247.907 125.602C248.835 124.324 250.085 123.325 251.657 122.605C253.239 121.876 255.024 121.511 257.012 121.511C259.02 121.511 260.777 121.876 262.282 122.605C263.788 123.334 264.958 124.319 265.791 125.56C266.634 126.791 267.05 128.173 267.041 129.707C267.05 131.336 266.544 132.695 265.521 133.784C264.508 134.873 263.187 135.564 261.558 135.858V136.085C263.698 136.36 265.327 137.103 266.444 138.315C267.571 139.518 268.13 141.024 268.12 142.832C268.13 144.49 267.652 145.962 266.686 147.25C265.729 148.538 264.408 149.551 262.723 150.29C261.037 151.028 259.105 151.398 256.927 151.398Z" fill="black"/>
<rect x="300" y="110" width="60" height="130" rx="7" fill="black" stroke="black" stroke-width="2"/>
<rect x="301" y="110" width="58" height="124" rx="7" fill="white" stroke="black" stroke-width="2"/>
<path d="M320.282 186V156.909H339.885V161.98H326.433V168.912H338.876V173.983H326.433V180.929H339.941V186H320.282Z" fill="black"/>
<rect x="83" y="184" width="59.9295" height="58.6118" rx="7" fill="black" stroke="black" stroke-width="2"/>
<rect x="84.3174" y="184" width="57.2942" height="53.3412" rx="7" fill="white" stroke="black" stroke-width="2"/>
<path d="M101.363 219.886V215.043L113.508 195.909H117.684V202.614H115.212L107.556 214.73V214.957H124.815V219.886H101.363ZM115.326 225V218.409L115.44 216.264V195.909H121.207V225H115.326Z" fill="black"/>
<rect x="156" y="184" width="59.9295" height="58.6118" rx="7" fill="black" stroke="black" stroke-width="2"/>
<rect x="157.317" y="184" width="57.2942" height="53.3412" rx="7" fill="white" stroke="black" stroke-width="2"/>
<path d="M186.092 225.398C184.085 225.398 182.295 225.028 180.723 224.29C179.161 223.551 177.92 222.533 177.001 221.236C176.083 219.938 175.605 218.452 175.567 216.776H181.533C181.599 217.902 182.072 218.816 182.953 219.517C183.834 220.218 184.88 220.568 186.092 220.568C187.058 220.568 187.911 220.355 188.649 219.929C189.397 219.493 189.98 218.892 190.396 218.125C190.822 217.348 191.036 216.458 191.036 215.455C191.036 214.432 190.818 213.532 190.382 212.756C189.956 211.979 189.364 211.373 188.607 210.938C187.849 210.502 186.982 210.279 186.007 210.27C185.155 210.27 184.326 210.445 183.521 210.795C182.726 211.146 182.106 211.624 181.661 212.23L176.192 211.25L177.57 195.909H195.354V200.938H182.641L181.888 208.224H182.058C182.57 207.505 183.341 206.908 184.374 206.435C185.406 205.961 186.561 205.724 187.839 205.724C189.591 205.724 191.154 206.136 192.527 206.96C193.9 207.784 194.984 208.916 195.78 210.355C196.575 211.785 196.968 213.433 196.959 215.298C196.968 217.259 196.514 219.001 195.595 220.526C194.686 222.041 193.412 223.234 191.774 224.105C190.145 224.967 188.251 225.398 186.092 225.398Z" fill="black"/>
<rect x="229" y="184" width="59.9295" height="58.6118" rx="7" fill="black" stroke="black" stroke-width="2"/>
<rect x="230.317" y="184" width="57.2942" height="53.3412" rx="7" fill="white" stroke="black" stroke-width="2"/>
<path d="M259.32 225.398C257.823 225.388 256.379 225.137 254.987 224.645C253.605 224.152 252.364 223.352 251.266 222.244C250.167 221.136 249.296 219.669 248.652 217.841C248.018 216.013 247.7 213.769 247.7 211.108C247.71 208.665 247.989 206.482 248.538 204.56C249.097 202.628 249.893 200.99 250.925 199.645C251.966 198.3 253.212 197.277 254.661 196.577C256.109 195.866 257.733 195.511 259.533 195.511C261.474 195.511 263.188 195.89 264.675 196.648C266.161 197.396 267.355 198.414 268.254 199.702C269.163 200.99 269.713 202.434 269.902 204.034H263.837C263.6 203.021 263.103 202.225 262.345 201.648C261.588 201.07 260.65 200.781 259.533 200.781C257.639 200.781 256.199 201.605 255.214 203.253C254.239 204.901 253.742 207.14 253.723 209.972H253.922C254.357 209.11 254.945 208.376 255.683 207.77C256.431 207.154 257.279 206.686 258.226 206.364C259.182 206.032 260.191 205.866 261.251 205.866C262.975 205.866 264.509 206.274 265.854 207.088C267.198 207.893 268.259 209.001 269.036 210.412C269.812 211.823 270.2 213.437 270.2 215.256C270.2 217.225 269.741 218.977 268.822 220.511C267.913 222.045 266.64 223.248 265.001 224.119C263.373 224.981 261.479 225.407 259.32 225.398ZM259.291 220.568C260.238 220.568 261.086 220.341 261.834 219.886C262.582 219.432 263.169 218.816 263.595 218.04C264.021 217.263 264.234 216.392 264.234 215.426C264.234 214.46 264.021 213.594 263.595 212.827C263.179 212.06 262.601 211.449 261.862 210.994C261.124 210.54 260.281 210.312 259.334 210.312C258.624 210.312 257.965 210.445 257.359 210.71C256.763 210.975 256.237 211.345 255.783 211.818C255.338 212.292 254.987 212.841 254.732 213.466C254.476 214.081 254.348 214.74 254.348 215.44C254.348 216.378 254.561 217.235 254.987 218.011C255.423 218.788 256.01 219.408 256.749 219.872C257.497 220.336 258.344 220.568 259.291 220.568Z" fill="black"/>
<rect x="81" y="252" width="59.9295" height="58.6118" rx="7" fill="black" stroke="black" stroke-width="2"/>
<rect x="82.3174" y="252" width="57.2942" height="53.3412" rx="7" fill="white" stroke="black" stroke-width="2"/>
<path d="M102.614 293L114.674 269.136V268.938H100.625V263.909H121.037V269.009L108.963 293H102.614Z" fill="black"/>
<rect x="154" y="252" width="59.9295" height="58.6118" rx="7" fill="black" stroke="black" stroke-width="2"/>
<rect x="155.317" y="252" width="57.2942" height="53.3412" rx="7" fill="white" stroke="black" stroke-width="2"/>
<path d="M183.988 293.398C181.8 293.398 179.854 293.043 178.15 292.332C176.454 291.613 175.124 290.633 174.158 289.392C173.192 288.152 172.709 286.745 172.709 285.173C172.709 283.961 172.984 282.848 173.533 281.835C174.092 280.812 174.849 279.965 175.806 279.293C176.762 278.611 177.832 278.175 179.016 277.986V277.787C177.463 277.474 176.203 276.722 175.238 275.528C174.272 274.326 173.789 272.929 173.789 271.338C173.789 269.832 174.229 268.492 175.11 267.318C175.99 266.134 177.198 265.206 178.732 264.534C180.275 263.852 182.027 263.511 183.988 263.511C185.948 263.511 187.695 263.852 189.229 264.534C190.773 265.216 191.985 266.149 192.865 267.332C193.746 268.507 194.191 269.842 194.201 271.338C194.191 272.938 193.699 274.335 192.723 275.528C191.748 276.722 190.498 277.474 188.973 277.787V277.986C190.138 278.175 191.194 278.611 192.141 279.293C193.097 279.965 193.855 280.812 194.414 281.835C194.982 282.848 195.271 283.961 195.28 285.173C195.271 286.745 194.783 288.152 193.817 289.392C192.851 290.633 191.516 291.613 189.811 292.332C188.116 293.043 186.175 293.398 183.988 293.398ZM183.988 288.881C184.963 288.881 185.815 288.705 186.544 288.355C187.274 287.995 187.842 287.503 188.249 286.878C188.666 286.243 188.874 285.514 188.874 284.69C188.874 283.848 188.661 283.104 188.235 282.46C187.809 281.807 187.231 281.295 186.502 280.926C185.773 280.547 184.935 280.358 183.988 280.358C183.05 280.358 182.212 280.547 181.473 280.926C180.735 281.295 180.152 281.807 179.726 282.46C179.31 283.104 179.101 283.848 179.101 284.69C179.101 285.514 179.305 286.243 179.712 286.878C180.119 287.503 180.692 287.995 181.431 288.355C182.169 288.705 183.022 288.881 183.988 288.881ZM183.988 275.884C184.802 275.884 185.526 275.718 186.161 275.386C186.795 275.055 187.292 274.596 187.652 274.009C188.012 273.421 188.192 272.744 188.192 271.977C188.192 271.22 188.012 270.557 187.652 269.989C187.292 269.411 186.8 268.961 186.175 268.639C185.55 268.308 184.821 268.142 183.988 268.142C183.164 268.142 182.435 268.308 181.8 268.639C181.166 268.961 180.668 269.411 180.309 269.989C179.958 270.557 179.783 271.22 179.783 271.977C179.783 272.744 179.963 273.421 180.323 274.009C180.683 274.596 181.18 275.055 181.814 275.386C182.449 275.718 183.173 275.884 183.988 275.884Z" fill="black"/>
<rect x="227" y="252" width="59.9295" height="58.6118" rx="7" fill="black" stroke="black" stroke-width="2"/>
<rect x="228.317" y="252" width="57.2942" height="53.3412" rx="7" fill="white" stroke="black" stroke-width="2"/>
<path d="M256.68 263.511C258.177 263.511 259.616 263.762 260.999 264.264C262.391 264.766 263.631 265.566 264.72 266.665C265.819 267.763 266.685 269.222 267.32 271.04C267.964 272.848 268.29 275.069 268.3 277.702C268.3 280.173 268.02 282.38 267.462 284.321C266.912 286.253 266.122 287.896 265.089 289.25C264.057 290.604 262.812 291.636 261.354 292.347C259.895 293.047 258.267 293.398 256.467 293.398C254.526 293.398 252.812 293.024 251.325 292.276C249.839 291.518 248.641 290.491 247.732 289.193C246.832 287.886 246.287 286.419 246.098 284.79H252.163C252.4 285.85 252.897 286.674 253.655 287.261C254.412 287.839 255.35 288.128 256.467 288.128C258.361 288.128 259.801 287.304 260.786 285.656C261.77 283.999 262.268 281.731 262.277 278.852H262.078C261.643 279.705 261.055 280.438 260.317 281.054C259.578 281.66 258.731 282.129 257.774 282.46C256.827 282.792 255.819 282.957 254.749 282.957C253.035 282.957 251.505 282.555 250.161 281.75C248.816 280.945 247.755 279.837 246.979 278.426C246.202 277.015 245.814 275.405 245.814 273.597C245.804 271.646 246.254 269.908 247.163 268.384C248.072 266.859 249.341 265.666 250.97 264.804C252.608 263.933 254.512 263.502 256.68 263.511ZM256.723 268.341C255.767 268.341 254.914 268.568 254.166 269.023C253.428 269.477 252.84 270.088 252.405 270.855C251.979 271.622 251.77 272.479 251.78 273.426C251.78 274.383 251.988 275.244 252.405 276.011C252.831 276.769 253.409 277.375 254.138 277.83C254.876 278.275 255.719 278.497 256.666 278.497C257.376 278.497 258.035 278.365 258.641 278.099C259.247 277.834 259.772 277.47 260.217 277.006C260.672 276.532 261.027 275.988 261.283 275.372C261.538 274.757 261.666 274.103 261.666 273.412C261.657 272.493 261.439 271.651 261.013 270.884C260.587 270.116 260 269.501 259.251 269.037C258.503 268.573 257.661 268.341 256.723 268.341Z" fill="black"/>
<rect x="300" y="252" width="59.9295" height="58.6118" rx="7" fill="black" stroke="black" stroke-width="2"/>
<rect x="301.318" y="252" width="57.2942" height="53.3412" rx="7" fill="white" stroke="black" stroke-width="2"/>
<path d="M329.995 293.639C327.551 293.63 325.449 293.028 323.688 291.835C321.936 290.642 320.587 288.914 319.64 286.651C318.702 284.387 318.238 281.665 318.248 278.483C318.248 275.311 318.716 272.607 319.654 270.372C320.601 268.137 321.95 266.437 323.702 265.273C325.463 264.098 327.561 263.511 329.995 263.511C332.428 263.511 334.521 264.098 336.273 265.273C338.034 266.447 339.389 268.152 340.336 270.386C341.283 272.612 341.751 275.311 341.742 278.483C341.742 281.674 341.268 284.402 340.321 286.665C339.384 288.928 338.039 290.656 336.287 291.849C334.535 293.043 332.438 293.639 329.995 293.639ZM329.995 288.54C331.661 288.54 332.992 287.702 333.986 286.026C334.98 284.349 335.473 281.835 335.463 278.483C335.463 276.277 335.236 274.439 334.782 272.972C334.337 271.504 333.702 270.401 332.878 269.662C332.064 268.923 331.103 268.554 329.995 268.554C328.337 268.554 327.012 269.383 326.017 271.04C325.023 272.697 324.521 275.178 324.512 278.483C324.512 280.718 324.734 282.583 325.179 284.08C325.634 285.566 326.273 286.684 327.097 287.432C327.921 288.17 328.887 288.54 329.995 288.54Z" fill="black"/>
</svg>
