<svg width="451" height="332" viewBox="0 0 451 332" fill="none" xmlns="http://www.w3.org/2000/svg">
<rect x="1" y="1" width="449" height="330" rx="11" fill="white" stroke="black" stroke-width="2"/>
<rect x="98" y="36" width="101" height="101" rx="7" fill="black" stroke="black" stroke-width="2"/>
<rect x="98" y="184" width="101" height="101" rx="7" fill="black" stroke="black" stroke-width="2"/>
<rect x="252" y="36" width="101" height="101" rx="7" fill="black" stroke="black" stroke-width="2"/>
<rect x="252" y="184" width="101" height="101" rx="7" fill="black" stroke="black" stroke-width="2"/>
<rect x="102" y="36" width="93" height="93" rx="7" fill="white" stroke="black" stroke-width="2"/>
<rect x="102" y="184" width="93" height="93" rx="7" fill="white" stroke="black" stroke-width="2"/>
<rect x="256" y="36" width="93" height="93" rx="7" fill="white" stroke="black" stroke-width="2"/>
<rect x="256" y="184" width="93" height="93" rx="7" fill="white" stroke="black" stroke-width="2"/>
<rect x="87" y="28" width="123" height="123" rx="7" stroke="black" stroke-width="2"/>
<rect x="87" y="176" width="123" height="123" rx="7" stroke="black" stroke-width="2"/>
<rect x="241" y="28" width="123" height="123" rx="7" stroke="black" stroke-width="2"/>
<rect x="241" y="176" width="123" height="123" rx="7" stroke="black" stroke-width="2"/>
<rect width="48" height="15" transform="translate(124 142)" fill="white"/>
<path d="M135.023 148C134.929 147.713 134.805 147.456 134.652 147.229C134.501 146.999 134.321 146.803 134.111 146.641C133.903 146.479 133.668 146.355 133.403 146.27C133.139 146.185 132.849 146.142 132.534 146.142C132.017 146.142 131.547 146.276 131.124 146.543C130.7 146.81 130.364 147.203 130.114 147.723C129.864 148.243 129.739 148.881 129.739 149.636C129.739 150.392 129.865 151.03 130.118 151.55C130.371 152.07 130.713 152.463 131.145 152.73C131.577 152.997 132.063 153.131 132.602 153.131C133.102 153.131 133.543 153.024 133.923 152.811C134.307 152.595 134.605 152.291 134.818 151.899C135.034 151.504 135.142 151.04 135.142 150.506L135.466 150.574H132.841V149.636H136.165V150.574C136.165 151.293 136.011 151.918 135.705 152.449C135.401 152.98 134.98 153.392 134.443 153.685C133.909 153.974 133.295 154.119 132.602 154.119C131.83 154.119 131.151 153.938 130.565 153.574C129.983 153.21 129.528 152.693 129.202 152.023C128.878 151.352 128.716 150.557 128.716 149.636C128.716 148.946 128.808 148.325 128.993 147.774C129.18 147.22 129.445 146.749 129.786 146.359C130.126 145.97 130.53 145.672 130.996 145.464C131.462 145.257 131.974 145.153 132.534 145.153C132.994 145.153 133.423 145.223 133.821 145.362C134.222 145.499 134.578 145.693 134.891 145.946C135.206 146.196 135.469 146.496 135.679 146.845C135.889 147.192 136.034 147.577 136.114 148H135.023ZM137.975 154V145.273H140.924C141.605 145.273 142.165 145.389 142.603 145.622C143.04 145.852 143.364 146.169 143.574 146.572C143.784 146.976 143.89 147.435 143.89 147.949C143.89 148.463 143.784 148.919 143.574 149.317C143.364 149.714 143.042 150.027 142.607 150.254C142.172 150.479 141.617 150.591 140.941 150.591H138.554V149.636H140.907C141.373 149.636 141.748 149.568 142.032 149.432C142.319 149.295 142.526 149.102 142.654 148.852C142.784 148.599 142.85 148.298 142.85 147.949C142.85 147.599 142.784 147.294 142.654 147.033C142.523 146.771 142.314 146.57 142.027 146.428C141.74 146.283 141.361 146.21 140.89 146.21H139.032V154H137.975ZM142.083 150.08L144.23 154H143.003L140.89 150.08H142.083ZM145.651 154V145.273H150.918V146.21H146.707V149.159H150.645V150.097H146.707V153.062H150.986V154H145.651ZM152.822 154V145.273H158.089V146.21H153.879V149.159H157.817V150.097H153.879V153.062H158.158V154H152.822ZM166.915 145.273V154H165.892L161.136 147.148H161.051V154H159.994V145.273H161.017L165.79 152.142H165.875V145.273H166.915Z" fill="black"/>
<rect width="57" height="15" transform="translate(120 290)" fill="white"/>
<path d="M124.307 293.273H125.517L127.938 297.347H128.04L130.46 293.273H131.67L128.517 298.403V302H127.46V298.403L124.307 293.273ZM133.037 302V293.273H138.304V294.21H134.094V297.159H138.032V298.097H134.094V301.062H138.373V302H133.037ZM140.209 302V293.273H141.266V301.062H145.323V302H140.209ZM146.959 302V293.273H148.016V301.062H152.073V302H146.959ZM160.733 297.636C160.733 298.557 160.567 299.352 160.234 300.023C159.902 300.693 159.446 301.21 158.866 301.574C158.287 301.938 157.625 302.119 156.881 302.119C156.136 302.119 155.474 301.938 154.895 301.574C154.315 301.21 153.859 300.693 153.527 300.023C153.195 299.352 153.028 298.557 153.028 297.636C153.028 296.716 153.195 295.92 153.527 295.25C153.859 294.58 154.315 294.062 154.895 293.699C155.474 293.335 156.136 293.153 156.881 293.153C157.625 293.153 158.287 293.335 158.866 293.699C159.446 294.062 159.902 294.58 160.234 295.25C160.567 295.92 160.733 296.716 160.733 297.636ZM159.71 297.636C159.71 296.881 159.584 296.243 159.331 295.723C159.081 295.203 158.741 294.81 158.312 294.543C157.886 294.276 157.409 294.142 156.881 294.142C156.352 294.142 155.874 294.276 155.445 294.543C155.018 294.81 154.679 295.203 154.426 295.723C154.176 296.243 154.051 296.881 154.051 297.636C154.051 298.392 154.176 299.03 154.426 299.55C154.679 300.07 155.018 300.463 155.445 300.73C155.874 300.997 156.352 301.131 156.881 301.131C157.409 301.131 157.886 300.997 158.312 300.73C158.741 300.463 159.081 300.07 159.331 299.55C159.584 299.03 159.71 298.392 159.71 297.636ZM164.095 302L161.709 293.273H162.783L164.607 300.381H164.692L166.55 293.273H167.743L169.601 300.381H169.686L171.51 293.273H172.584L170.197 302H169.107L167.18 295.045H167.112L165.186 302H164.095Z" fill="black"/>
<rect width="39" height="15" transform="translate(283 290)" fill="white"/>
<path d="M288.057 302V293.273H291.108C291.716 293.273 292.217 293.378 292.612 293.588C293.007 293.795 293.301 294.075 293.494 294.428C293.688 294.777 293.784 295.165 293.784 295.591C293.784 295.966 293.717 296.276 293.584 296.52C293.453 296.764 293.28 296.957 293.064 297.099C292.851 297.241 292.619 297.347 292.369 297.415V297.5C292.636 297.517 292.905 297.611 293.175 297.781C293.445 297.952 293.67 298.196 293.852 298.514C294.034 298.832 294.125 299.222 294.125 299.682C294.125 300.119 294.026 300.513 293.827 300.862C293.628 301.212 293.314 301.489 292.885 301.693C292.456 301.898 291.898 302 291.21 302H288.057ZM289.114 301.062H291.21C291.901 301.062 292.391 300.929 292.68 300.662C292.973 300.392 293.119 300.065 293.119 299.682C293.119 299.386 293.044 299.114 292.893 298.864C292.743 298.611 292.528 298.409 292.25 298.259C291.972 298.105 291.642 298.028 291.261 298.028H289.114V301.062ZM289.114 297.108H291.074C291.392 297.108 291.679 297.045 291.935 296.92C292.193 296.795 292.398 296.619 292.548 296.392C292.702 296.165 292.778 295.898 292.778 295.591C292.778 295.207 292.645 294.882 292.378 294.615C292.111 294.345 291.688 294.21 291.108 294.21H289.114V297.108ZM295.862 302V293.273H296.918V301.062H300.975V302H295.862ZM308.339 293.273H309.396V299.051C309.396 299.648 309.255 300.18 308.974 300.649C308.695 301.115 308.302 301.483 307.793 301.753C307.285 302.02 306.688 302.153 306.004 302.153C305.319 302.153 304.722 302.02 304.214 301.753C303.705 301.483 303.31 301.115 303.029 300.649C302.751 300.18 302.612 299.648 302.612 299.051V293.273H303.668V298.966C303.668 299.392 303.762 299.771 303.95 300.104C304.137 300.433 304.404 300.693 304.751 300.884C305.1 301.071 305.518 301.165 306.004 301.165C306.489 301.165 306.907 301.071 307.256 300.884C307.606 300.693 307.873 300.433 308.058 300.104C308.245 299.771 308.339 299.392 308.339 298.966V293.273ZM311.506 302V293.273H316.773V294.21H312.563V297.159H316.5V298.097H312.563V301.062H316.841V302H311.506Z" fill="black"/>
<rect width="32" height="15" transform="translate(286 142)" fill="white"/>
<path d="M291.057 154V145.273H294.006C294.688 145.273 295.247 145.389 295.685 145.622C296.122 145.852 296.446 146.169 296.656 146.572C296.866 146.976 296.972 147.435 296.972 147.949C296.972 148.463 296.866 148.919 296.656 149.317C296.446 149.714 296.124 150.027 295.689 150.254C295.254 150.479 294.699 150.591 294.023 150.591H291.636V149.636H293.989C294.455 149.636 294.83 149.568 295.114 149.432C295.401 149.295 295.608 149.102 295.736 148.852C295.866 148.599 295.932 148.298 295.932 147.949C295.932 147.599 295.866 147.294 295.736 147.033C295.605 146.771 295.396 146.57 295.109 146.428C294.822 146.283 294.443 146.21 293.972 146.21H292.114V154H291.057ZM295.165 150.08L297.312 154H296.085L293.972 150.08H295.165ZM298.733 154V145.273H304V146.21H299.789V149.159H303.727V150.097H299.789V153.062H304.068V154H298.733ZM308.598 154H305.904V145.273H308.717C309.564 145.273 310.288 145.447 310.89 145.797C311.493 146.143 311.954 146.642 312.275 147.293C312.596 147.94 312.757 148.716 312.757 149.619C312.757 150.528 312.595 151.311 312.271 151.967C311.947 152.621 311.475 153.124 310.856 153.476C310.237 153.825 309.484 154 308.598 154ZM306.961 153.062H308.529C309.251 153.062 309.849 152.923 310.324 152.645C310.798 152.366 311.152 151.97 311.385 151.456C311.618 150.942 311.734 150.33 311.734 149.619C311.734 148.915 311.619 148.308 311.389 147.8C311.159 147.288 310.815 146.896 310.358 146.624C309.9 146.348 309.331 146.21 308.649 146.21H306.961V153.062Z" fill="black"/>
</svg>
