<svg width="451" height="332" viewBox="0 0 451 332" fill="none" xmlns="http://www.w3.org/2000/svg">
<rect x="1" y="1" width="449" height="330" rx="11" fill="white" stroke="black" stroke-width="2"/>
<rect x="58" y="121" width="66" height="100.694" rx="5" fill="black" stroke="black" stroke-width="2"/>
<rect x="58" y="121" width="66" height="95.1429" rx="5" fill="white" stroke="black" stroke-width="2"/>
<path d="M107.61 131.102H83.421L79.829 134.336L85.9386 141.122H103.119L110.582 134.402L107.61 131.102Z" fill="black"/>
<path d="M103.392 200.842L97.851 194.688H80.3342L72.9981 201.293L76.0722 204.707H99.099L103.392 200.842Z" fill="black"/>
<path d="M107.543 170.189L102.134 175.059L102.007 174.919L100.228 191.85L106.116 198.389L109.981 194.909L112.053 175.198L107.543 170.189Z" fill="black"/>
<path d="M105.299 143.6L112.79 136.855L115.738 140.129L113.623 160.257L108.063 165.263L103.675 160.39L103.519 160.53L105.299 143.6Z" fill="black"/>
<path d="M69.81 175.255L67.6926 195.401L70.7897 198.841L78.0974 192.261L79.9174 174.945L79.7899 175.059L75.419 170.205L69.81 175.255Z" fill="black"/>
<path d="M71.388 160.242L73.5131 140.023L77.1051 136.789L83.2146 143.574L81.4351 160.505L81.3318 160.39L75.9137 165.268L71.388 160.242Z" fill="black"/>
<path d="M78.1176 167.725L83.5399 162.843L83.4136 162.702H101.107L100.951 162.843L105.347 167.725L99.9251 172.607L100.028 172.722H82.3861L82.5136 172.607L78.1176 167.725Z" fill="black"/>
<rect x="246" y="121" width="66" height="100.694" rx="5" fill="black" stroke="black" stroke-width="2"/>
<rect x="246" y="121" width="66" height="95.1429" rx="5" fill="white" stroke="black" stroke-width="2"/>
<path d="M295.61 131.102H271.421L267.829 134.336L273.939 141.122H291.119L298.582 134.402L295.61 131.102Z" fill="black"/>
<path d="M291.392 200.842L285.851 194.688H268.334L260.998 201.293L264.072 204.707H287.099L291.392 200.842Z" fill="black"/>
<path d="M295.543 170.189L290.134 175.059L290.007 174.919L288.228 191.85L294.116 198.389L297.981 194.909L300.053 175.198L295.543 170.189Z" fill="black"/>
<path d="M293.299 143.6L300.79 136.855L303.738 140.129L301.623 160.257L296.063 165.263L291.675 160.39L291.519 160.53L293.299 143.6Z" fill="black"/>
<path d="M257.81 175.255L255.693 195.401L258.79 198.841L266.097 192.261L267.917 174.945L267.79 175.059L263.419 170.205L257.81 175.255Z" fill="black"/>
<path d="M259.388 160.242L261.513 140.023L265.105 136.789L271.215 143.574L269.435 160.505L269.332 160.39L263.914 165.268L259.388 160.242Z" fill="black"/>
<path d="M266.118 167.725L271.54 162.843L271.414 162.702H289.107L288.951 162.843L293.347 167.725L287.925 172.607L288.028 172.722H270.386L270.514 172.607L266.118 167.725Z" fill="black"/>
<rect x="138" y="121" width="66" height="100.694" rx="5" fill="black" stroke="black" stroke-width="2"/>
<rect x="138" y="121" width="66" height="95.1429" rx="5" fill="white" stroke="black" stroke-width="2"/>
<path d="M187.61 131.102H163.421L159.829 134.336L165.939 141.122H183.119L190.582 134.402L187.61 131.102Z" fill="black"/>
<path d="M183.392 200.842L177.851 194.688H160.334L152.998 201.293L156.072 204.707H179.099L183.392 200.842Z" fill="black"/>
<path d="M187.543 170.189L182.134 175.059L182.007 174.919L180.228 191.85L186.116 198.389L189.981 194.909L192.053 175.198L187.543 170.189Z" fill="black"/>
<path d="M185.299 143.6L192.79 136.855L195.738 140.129L193.623 160.257L188.063 165.263L183.675 160.39L183.519 160.53L185.299 143.6Z" fill="black"/>
<path d="M149.81 175.255L147.693 195.401L150.79 198.841L158.097 192.261L159.917 174.945L159.79 175.059L155.419 170.205L149.81 175.255Z" fill="black"/>
<path d="M151.388 160.242L153.513 140.023L157.105 136.789L163.215 143.574L161.435 160.505L161.332 160.39L155.914 165.268L151.388 160.242Z" fill="black"/>
<path d="M158.118 167.725L163.54 162.843L163.414 162.702H181.107L180.951 162.843L185.347 167.725L179.925 172.607L180.028 172.722H162.386L162.514 172.607L158.118 167.725Z" fill="black"/>
<rect x="326" y="121" width="66" height="100.694" rx="5" fill="black" stroke="black" stroke-width="2"/>
<rect x="326" y="121" width="66" height="95.1429" rx="5" fill="white" stroke="black" stroke-width="2"/>
<path d="M375.61 131.102H351.421L347.829 134.336L353.939 141.122H371.119L378.582 134.402L375.61 131.102Z" fill="black"/>
<path d="M371.392 200.842L365.851 194.688H348.334L340.998 201.293L344.072 204.707H367.099L371.392 200.842Z" fill="black"/>
<path d="M375.543 170.189L370.134 175.059L370.007 174.919L368.228 191.85L374.116 198.389L377.981 194.909L380.053 175.198L375.543 170.189Z" fill="black"/>
<path d="M373.299 143.6L380.79 136.855L383.738 140.129L381.623 160.257L376.063 165.263L371.675 160.39L371.519 160.53L373.299 143.6Z" fill="black"/>
<path d="M337.81 175.255L335.693 195.401L338.79 198.841L346.097 192.261L347.917 174.945L347.79 175.059L343.419 170.205L337.81 175.255Z" fill="black"/>
<path d="M339.388 160.242L341.513 140.023L345.105 136.789L351.215 143.574L349.435 160.505L349.332 160.39L343.914 165.268L339.388 160.242Z" fill="black"/>
<path d="M346.118 167.725L351.54 162.843L351.414 162.702H369.107L368.951 162.843L373.347 167.725L367.925 172.607L368.028 172.722H350.386L350.514 172.607L346.118 167.725Z" fill="black"/>
<circle cx="226" cy="162" r="6" fill="black" stroke="black" stroke-width="2"/>
<circle cx="226" cy="202" r="6" fill="black" stroke="black" stroke-width="2"/>
<rect x="118" y="250" width="216" height="59" rx="7" fill="black" stroke="black" stroke-width="2"/>
<rect x="119" y="250" width="215" height="53" rx="7" fill="white" stroke="black" stroke-width="2"/>
<path d="M160.229 284H157.9L163.134 269.455H165.669L170.904 284H168.574L164.462 272.097H164.348L160.229 284ZM160.62 278.304H168.176V280.151H160.62V278.304ZM173.004 284V269.455H178.189C179.316 269.455 180.251 269.649 180.994 270.037C181.742 270.425 182.301 270.963 182.67 271.649C183.04 272.331 183.224 273.119 183.224 274.014C183.224 274.904 183.037 275.688 182.663 276.365C182.294 277.037 181.735 277.561 180.987 277.935C180.244 278.309 179.309 278.496 178.182 278.496H174.254V276.607H177.983C178.693 276.607 179.271 276.505 179.716 276.301C180.166 276.098 180.495 275.802 180.703 275.413C180.911 275.025 181.016 274.559 181.016 274.014C181.016 273.465 180.909 272.989 180.696 272.587C180.488 272.184 180.159 271.876 179.709 271.663C179.264 271.446 178.679 271.337 177.955 271.337H175.199V284H173.004ZM180.185 277.438L183.778 284H181.278L177.756 277.438H180.185ZM185.895 269.455H188.558L193.189 280.761H193.359L197.99 269.455H200.653V284H198.565V273.474H198.43L194.141 283.979H192.408L188.118 273.467H187.983V284H185.895V269.455ZM214.506 268.773L209.819 286.188H207.923L212.61 268.773H214.506ZM226.483 284H221.774V269.455H226.632C228.057 269.455 229.281 269.746 230.304 270.328C231.326 270.906 232.11 271.737 232.654 272.821C233.204 273.901 233.478 275.196 233.478 276.706C233.478 278.221 233.201 279.523 232.647 280.612C232.098 281.701 231.303 282.539 230.261 283.126C229.219 283.709 227.96 284 226.483 284ZM223.968 282.082H226.362C227.47 282.082 228.391 281.874 229.125 281.457C229.859 281.036 230.408 280.428 230.772 279.632C231.137 278.832 231.319 277.857 231.319 276.706C231.319 275.565 231.137 274.597 230.772 273.801C230.413 273.006 229.875 272.402 229.16 271.99C228.445 271.578 227.557 271.372 226.497 271.372H223.968V282.082ZM238.402 269.455V284H236.207V269.455H238.402ZM249.531 273.276C249.455 272.603 249.143 272.082 248.594 271.713C248.045 271.339 247.353 271.152 246.52 271.152C245.923 271.152 245.407 271.247 244.972 271.436C244.536 271.621 244.197 271.876 243.956 272.203C243.719 272.525 243.601 272.892 243.601 273.304C243.601 273.65 243.681 273.948 243.842 274.199C244.008 274.45 244.223 274.661 244.489 274.831C244.759 274.997 245.047 275.136 245.355 275.25C245.663 275.359 245.959 275.449 246.243 275.52L247.663 275.889C248.127 276.003 248.603 276.157 249.091 276.351C249.579 276.545 250.031 276.801 250.447 277.118C250.864 277.435 251.2 277.828 251.456 278.297C251.716 278.766 251.847 279.327 251.847 279.98C251.847 280.804 251.634 281.536 251.207 282.175C250.786 282.814 250.173 283.318 249.368 283.688C248.568 284.057 247.599 284.241 246.463 284.241C245.374 284.241 244.432 284.069 243.636 283.723C242.841 283.377 242.218 282.887 241.768 282.253C241.319 281.614 241.07 280.856 241.023 279.98H243.224C243.267 280.506 243.438 280.944 243.736 281.294C244.039 281.64 244.425 281.898 244.893 282.068C245.367 282.234 245.885 282.317 246.449 282.317C247.069 282.317 247.621 282.22 248.104 282.026C248.591 281.827 248.975 281.552 249.254 281.202C249.534 280.847 249.673 280.432 249.673 279.959C249.673 279.528 249.55 279.175 249.304 278.901C249.063 278.626 248.733 278.399 248.317 278.219C247.905 278.039 247.438 277.88 246.918 277.743L245.199 277.274C244.034 276.957 243.111 276.491 242.429 275.875C241.752 275.259 241.413 274.445 241.413 273.432C241.413 272.594 241.641 271.862 242.095 271.237C242.55 270.612 243.165 270.127 243.942 269.781C244.718 269.431 245.594 269.256 246.57 269.256C247.554 269.256 248.423 269.429 249.176 269.774C249.934 270.12 250.53 270.596 250.966 271.202C251.402 271.803 251.629 272.494 251.648 273.276H249.531ZM255.581 284H253.251L258.485 269.455H261.021L266.255 284H263.926L259.814 272.097H259.7L255.581 284ZM255.971 278.304H263.528V280.151H255.971V278.304ZM268.356 284V269.455H273.54C274.667 269.455 275.603 269.649 276.346 270.037C277.094 270.425 277.653 270.963 278.022 271.649C278.391 272.331 278.576 273.119 278.576 274.014C278.576 274.904 278.389 275.688 278.015 276.365C277.646 277.037 277.087 277.561 276.339 277.935C275.595 278.309 274.66 278.496 273.533 278.496H269.606V276.607H273.335C274.045 276.607 274.622 276.505 275.067 276.301C275.517 276.098 275.846 275.802 276.055 275.413C276.263 275.025 276.367 274.559 276.367 274.014C276.367 273.465 276.261 272.989 276.048 272.587C275.839 272.184 275.51 271.876 275.06 271.663C274.615 271.446 274.031 271.337 273.306 271.337H270.55V284H268.356ZM275.536 277.438L279.13 284H276.63L273.107 277.438H275.536ZM281.246 269.455H283.91L288.54 280.761H288.711L293.342 269.455H296.005V284H293.917V273.474H293.782L289.492 283.979H287.759L283.469 273.467H283.335V284H281.246V269.455Z" fill="black"/>
<rect x="72" y="38" width="306" height="52" rx="7" fill="black" stroke="black" stroke-width="2"/>
<rect x="73" y="38" width="304" height="45" rx="7" fill="white" stroke="black" stroke-width="2"/>
<rect x="85" y="52" width="280" height="17" rx="7" fill="black" stroke="black" stroke-width="2"/>
</svg>
