<svg width="647" height="332" viewBox="0 0 647 332" fill="none" xmlns="http://www.w3.org/2000/svg">
<rect x="100" y="1" width="449" height="330" rx="11" fill="white" stroke="black" stroke-width="2"/>
<rect x="157" y="121" width="66" height="100.694" rx="5" fill="black" stroke="black" stroke-width="2"/>
<rect x="157" y="121" width="66" height="95.1429" rx="5" fill="white" stroke="black" stroke-width="2"/>
<path d="M206.61 131.102H182.421L178.829 134.336L184.939 141.122H202.119L209.582 134.402L206.61 131.102Z" fill="black"/>
<path d="M202.392 200.842L196.851 194.688H179.334L171.998 201.293L175.072 204.707H198.099L202.392 200.842Z" fill="black"/>
<path d="M206.543 170.189L201.134 175.059L201.007 174.919L199.228 191.85L205.116 198.389L208.981 194.909L211.053 175.198L206.543 170.189Z" fill="black"/>
<path d="M204.299 143.6L211.79 136.855L214.738 140.129L212.623 160.257L207.063 165.263L202.675 160.39L202.519 160.53L204.299 143.6Z" fill="black"/>
<path d="M168.81 175.255L166.693 195.401L169.79 198.841L177.097 192.261L178.917 174.945L178.79 175.059L174.419 170.205L168.81 175.255Z" fill="black"/>
<path d="M170.388 160.242L172.513 140.023L176.105 136.789L182.215 143.574L180.435 160.505L180.332 160.39L174.914 165.268L170.388 160.242Z" fill="black"/>
<path d="M177.118 167.725L182.54 162.843L182.414 162.702H200.107L199.951 162.843L204.347 167.725L198.925 172.607L199.028 172.722H181.386L181.514 172.607L177.118 167.725Z" fill="black"/>
<rect x="345" y="121" width="66" height="100.694" rx="5" fill="black" stroke="black" stroke-width="2"/>
<rect x="345" y="121" width="66" height="95.1429" rx="5" fill="white" stroke="black" stroke-width="2"/>
<path d="M394.61 131.102H370.421L366.829 134.336L372.939 141.122H390.119L397.582 134.402L394.61 131.102Z" fill="black"/>
<path d="M390.392 200.842L384.851 194.688H367.334L359.998 201.293L363.072 204.707H386.099L390.392 200.842Z" fill="black"/>
<path d="M394.543 170.189L389.134 175.059L389.007 174.919L387.228 191.85L393.116 198.389L396.981 194.909L399.053 175.198L394.543 170.189Z" fill="black"/>
<path d="M392.299 143.6L399.79 136.855L402.738 140.129L400.623 160.257L395.063 165.263L390.675 160.39L390.519 160.53L392.299 143.6Z" fill="black"/>
<path d="M356.81 175.255L354.693 195.401L357.79 198.841L365.097 192.261L366.917 174.945L366.79 175.059L362.419 170.205L356.81 175.255Z" fill="black"/>
<path d="M358.388 160.242L360.513 140.023L364.105 136.789L370.215 143.574L368.435 160.505L368.332 160.39L362.914 165.268L358.388 160.242Z" fill="black"/>
<path d="M365.118 167.725L370.54 162.843L370.414 162.702H388.107L387.951 162.843L392.347 167.725L386.925 172.607L387.028 172.722H369.386L369.514 172.607L365.118 167.725Z" fill="black"/>
<rect x="237" y="121" width="66" height="100.694" rx="5" fill="black" stroke="black" stroke-width="2"/>
<rect x="237" y="121" width="66" height="95.1429" rx="5" fill="white" stroke="black" stroke-width="2"/>
<path d="M286.61 131.102H262.421L258.829 134.336L264.939 141.122H282.119L289.582 134.402L286.61 131.102Z" fill="black"/>
<path d="M282.392 200.842L276.851 194.688H259.334L251.998 201.293L255.072 204.707H278.099L282.392 200.842Z" fill="black"/>
<path d="M286.543 170.189L281.134 175.059L281.007 174.919L279.228 191.85L285.116 198.389L288.981 194.909L291.053 175.198L286.543 170.189Z" fill="black"/>
<path d="M284.299 143.6L291.79 136.855L294.738 140.129L292.623 160.257L287.063 165.263L282.675 160.39L282.519 160.53L284.299 143.6Z" fill="black"/>
<path d="M248.81 175.255L246.693 195.401L249.79 198.841L257.097 192.261L258.917 174.945L258.79 175.059L254.419 170.205L248.81 175.255Z" fill="black"/>
<path d="M250.388 160.242L252.513 140.023L256.105 136.789L262.215 143.574L260.435 160.505L260.332 160.39L254.914 165.268L250.388 160.242Z" fill="black"/>
<path d="M257.118 167.725L262.54 162.843L262.414 162.702H280.107L279.951 162.843L284.347 167.725L278.925 172.607L279.028 172.722H261.386L261.514 172.607L257.118 167.725Z" fill="black"/>
<rect x="425" y="121" width="66" height="100.694" rx="5" fill="black" stroke="black" stroke-width="2"/>
<rect x="425" y="121" width="66" height="95.1429" rx="5" fill="white" stroke="black" stroke-width="2"/>
<path d="M474.61 131.102H450.421L446.829 134.336L452.939 141.122H470.119L477.582 134.402L474.61 131.102Z" fill="black"/>
<path d="M470.392 200.842L464.851 194.688H447.334L439.998 201.293L443.072 204.707H466.099L470.392 200.842Z" fill="black"/>
<path d="M474.543 170.189L469.134 175.059L469.007 174.919L467.228 191.85L473.116 198.389L476.981 194.909L479.053 175.198L474.543 170.189Z" fill="black"/>
<path d="M472.299 143.6L479.79 136.855L482.738 140.129L480.623 160.257L475.063 165.263L470.675 160.39L470.519 160.53L472.299 143.6Z" fill="black"/>
<path d="M436.81 175.255L434.693 195.401L437.79 198.841L445.097 192.261L446.917 174.945L446.79 175.059L442.419 170.205L436.81 175.255Z" fill="black"/>
<path d="M438.388 160.242L440.513 140.023L444.105 136.789L450.215 143.574L448.435 160.505L448.332 160.39L442.914 165.268L438.388 160.242Z" fill="black"/>
<path d="M445.118 167.725L450.54 162.843L450.414 162.702H468.107L467.951 162.843L472.347 167.725L466.925 172.607L467.028 172.722H449.386L449.514 172.607L445.118 167.725Z" fill="black"/>
<circle cx="325" cy="162" r="6" fill="black" stroke="black" stroke-width="2"/>
<circle cx="325" cy="202" r="6" fill="black" stroke="black" stroke-width="2"/>
<rect x="217" y="250" width="216" height="59" rx="7" fill="black" stroke="black" stroke-width="2"/>
<rect x="218" y="250" width="215" height="53" rx="7" fill="white" stroke="black" stroke-width="2"/>
<path d="M259.229 284H256.9L262.134 269.455H264.669L269.904 284H267.574L263.462 272.097H263.348L259.229 284ZM259.62 278.304H267.176V280.151H259.62V278.304ZM272.004 284V269.455H277.189C278.316 269.455 279.251 269.649 279.994 270.037C280.742 270.425 281.301 270.963 281.67 271.649C282.04 272.331 282.224 273.119 282.224 274.014C282.224 274.904 282.037 275.688 281.663 276.365C281.294 277.037 280.735 277.561 279.987 277.935C279.244 278.309 278.309 278.496 277.182 278.496H273.254V276.607H276.983C277.693 276.607 278.271 276.505 278.716 276.301C279.166 276.098 279.495 275.802 279.703 275.413C279.911 275.025 280.016 274.559 280.016 274.014C280.016 273.465 279.909 272.989 279.696 272.587C279.488 272.184 279.159 271.876 278.709 271.663C278.264 271.446 277.679 271.337 276.955 271.337H274.199V284H272.004ZM279.185 277.438L282.778 284H280.278L276.756 277.438H279.185ZM284.895 269.455H287.558L292.189 280.761H292.359L296.99 269.455H299.653V284H297.565V273.474H297.43L293.141 283.979H291.408L287.118 273.467H286.983V284H284.895V269.455ZM313.506 268.773L308.819 286.188H306.923L311.61 268.773H313.506ZM325.483 284H320.774V269.455H325.632C327.057 269.455 328.281 269.746 329.304 270.328C330.326 270.906 331.11 271.737 331.654 272.821C332.204 273.901 332.478 275.196 332.478 276.706C332.478 278.221 332.201 279.523 331.647 280.612C331.098 281.701 330.303 282.539 329.261 283.126C328.219 283.709 326.96 284 325.483 284ZM322.968 282.082H325.362C326.47 282.082 327.391 281.874 328.125 281.457C328.859 281.036 329.408 280.428 329.772 279.632C330.137 278.832 330.319 277.857 330.319 276.706C330.319 275.565 330.137 274.597 329.772 273.801C329.413 273.006 328.875 272.402 328.16 271.99C327.445 271.578 326.557 271.372 325.497 271.372H322.968V282.082ZM337.402 269.455V284H335.207V269.455H337.402ZM348.531 273.276C348.455 272.603 348.143 272.082 347.594 271.713C347.045 271.339 346.353 271.152 345.52 271.152C344.923 271.152 344.407 271.247 343.972 271.436C343.536 271.621 343.197 271.876 342.956 272.203C342.719 272.525 342.601 272.892 342.601 273.304C342.601 273.65 342.681 273.948 342.842 274.199C343.008 274.45 343.223 274.661 343.489 274.831C343.759 274.997 344.047 275.136 344.355 275.25C344.663 275.359 344.959 275.449 345.243 275.52L346.663 275.889C347.127 276.003 347.603 276.157 348.091 276.351C348.579 276.545 349.031 276.801 349.447 277.118C349.864 277.435 350.2 277.828 350.456 278.297C350.716 278.766 350.847 279.327 350.847 279.98C350.847 280.804 350.634 281.536 350.207 282.175C349.786 282.814 349.173 283.318 348.368 283.688C347.568 284.057 346.599 284.241 345.463 284.241C344.374 284.241 343.432 284.069 342.636 283.723C341.841 283.377 341.218 282.887 340.768 282.253C340.319 281.614 340.07 280.856 340.023 279.98H342.224C342.267 280.506 342.438 280.944 342.736 281.294C343.039 281.64 343.425 281.898 343.893 282.068C344.367 282.234 344.885 282.317 345.449 282.317C346.069 282.317 346.621 282.22 347.104 282.026C347.591 281.827 347.975 281.552 348.254 281.202C348.534 280.847 348.673 280.432 348.673 279.959C348.673 279.528 348.55 279.175 348.304 278.901C348.063 278.626 347.733 278.399 347.317 278.219C346.905 278.039 346.438 277.88 345.918 277.743L344.199 277.274C343.034 276.957 342.111 276.491 341.429 275.875C340.752 275.259 340.413 274.445 340.413 273.432C340.413 272.594 340.641 271.862 341.095 271.237C341.55 270.612 342.165 270.127 342.942 269.781C343.718 269.431 344.594 269.256 345.57 269.256C346.554 269.256 347.423 269.429 348.176 269.774C348.934 270.12 349.53 270.596 349.966 271.202C350.402 271.803 350.629 272.494 350.648 273.276H348.531ZM354.581 284H352.251L357.485 269.455H360.021L365.255 284H362.926L358.814 272.097H358.7L354.581 284ZM354.971 278.304H362.528V280.151H354.971V278.304ZM367.356 284V269.455H372.54C373.667 269.455 374.603 269.649 375.346 270.037C376.094 270.425 376.653 270.963 377.022 271.649C377.391 272.331 377.576 273.119 377.576 274.014C377.576 274.904 377.389 275.688 377.015 276.365C376.646 277.037 376.087 277.561 375.339 277.935C374.595 278.309 373.66 278.496 372.533 278.496H368.606V276.607H372.335C373.045 276.607 373.622 276.505 374.067 276.301C374.517 276.098 374.846 275.802 375.055 275.413C375.263 275.025 375.367 274.559 375.367 274.014C375.367 273.465 375.261 272.989 375.048 272.587C374.839 272.184 374.51 271.876 374.06 271.663C373.615 271.446 373.031 271.337 372.306 271.337H369.55V284H367.356ZM374.536 277.438L378.13 284H375.63L372.107 277.438H374.536ZM380.246 269.455H382.91L387.54 280.761H387.711L392.342 269.455H395.005V284H392.917V273.474H392.782L388.492 283.979H386.759L382.469 273.467H382.335V284H380.246V269.455Z" fill="black"/>
<rect x="171" y="38" width="306" height="52" rx="7" fill="black" stroke="black" stroke-width="2"/>
<rect x="172" y="38" width="304" height="45" rx="7" fill="white" stroke="black" stroke-width="2"/>
<rect x="184" y="52" width="280" height="17" rx="7" fill="black" stroke="black" stroke-width="2"/>
<circle cx="19" cy="63" r="19" fill="black"/>
<path d="M21.1911 55.4545V70H18.9893V57.6562H18.9041L15.424 59.929V57.8267L19.0533 55.4545H21.1911Z" fill="white"/>
<path d="M97.2071 64.2071C97.5976 63.8166 97.5976 63.1834 97.2071 62.7929L90.8431 56.4289C90.4526 56.0384 89.8195 56.0384 89.4289 56.4289C89.0384 56.8195 89.0384 57.4526 89.4289 57.8431L95.0858 63.5L89.4289 69.1569C89.0384 69.5474 89.0384 70.1805 89.4289 70.5711C89.8195 70.9616 90.4526 70.9616 90.8431 70.5711L97.2071 64.2071ZM37 64.5H96.5V62.5H37V64.5Z" fill="black"/>
<circle cx="628" cy="166" r="19" fill="black"/>
<path d="M623.266 173V171.409L628.188 166.31C628.714 165.756 629.147 165.27 629.488 164.854C629.834 164.432 630.092 164.032 630.262 163.653C630.433 163.275 630.518 162.872 630.518 162.446C630.518 161.963 630.404 161.546 630.177 161.196C629.95 160.841 629.639 160.569 629.246 160.379C628.853 160.185 628.411 160.088 627.918 160.088C627.397 160.088 626.943 160.195 626.555 160.408C626.166 160.621 625.868 160.921 625.66 161.31C625.451 161.698 625.347 162.152 625.347 162.673H623.252C623.252 161.788 623.456 161.014 623.863 160.351C624.27 159.688 624.829 159.174 625.539 158.81C626.249 158.44 627.057 158.256 627.961 158.256C628.875 158.256 629.68 158.438 630.376 158.803C631.076 159.162 631.623 159.655 632.016 160.28C632.409 160.9 632.606 161.601 632.606 162.382C632.606 162.922 632.504 163.45 632.3 163.966C632.102 164.482 631.754 165.057 631.256 165.692C630.759 166.321 630.068 167.086 629.183 167.986L626.292 171.011V171.118H632.84V173H623.266Z" fill="white"/>
<path d="M552.293 165.293C551.902 165.683 551.902 166.317 552.293 166.707L558.657 173.071C559.047 173.462 559.681 173.462 560.071 173.071C560.462 172.681 560.462 172.047 560.071 171.657L554.414 166L560.071 160.343C560.462 159.953 560.462 159.319 560.071 158.929C559.681 158.538 559.047 158.538 558.657 158.929L552.293 165.293ZM553 167H612.5V165H553V167Z" fill="black"/>
<circle cx="19" cy="273" r="19" fill="black"/>
<path d="M19.0178 280.199C18.0424 280.199 17.1712 280.031 16.4041 279.695C15.6418 279.358 15.0381 278.892 14.593 278.295C14.1527 277.694 13.916 276.998 13.8828 276.207H16.1129C16.1413 276.638 16.2857 277.012 16.5462 277.33C16.8113 277.642 17.157 277.884 17.5831 278.054C18.0092 278.224 18.4827 278.31 19.0036 278.31C19.5765 278.31 20.0831 278.21 20.5234 278.011C20.9685 277.812 21.3165 277.536 21.5675 277.18C21.8184 276.821 21.9439 276.406 21.9439 275.938C21.9439 275.45 21.8184 275.021 21.5675 274.652C21.3213 274.278 20.959 273.984 20.4808 273.771C20.0073 273.558 19.4344 273.452 18.7621 273.452H17.5334V271.662H18.7621C19.3018 271.662 19.7753 271.565 20.1825 271.371C20.5945 271.177 20.9164 270.907 21.1484 270.561C21.3804 270.211 21.4964 269.801 21.4964 269.332C21.4964 268.883 21.3946 268.492 21.1911 268.161C20.9922 267.824 20.7081 267.562 20.3388 267.372C19.9742 267.183 19.5433 267.088 19.0462 267.088C18.5727 267.088 18.13 267.176 17.718 267.351C17.3108 267.521 16.9794 267.768 16.7237 268.089C16.468 268.407 16.3307 268.788 16.3118 269.233H14.1882C14.2119 268.447 14.4439 267.756 14.8842 267.159C15.3293 266.562 15.9164 266.096 16.6456 265.76C17.3748 265.424 18.1844 265.256 19.0746 265.256C20.0073 265.256 20.8123 265.438 21.4893 265.803C22.1712 266.162 22.6967 266.643 23.0661 267.244C23.4401 267.846 23.6248 268.504 23.62 269.219C23.6248 270.033 23.3975 270.724 22.9382 271.293C22.4837 271.861 21.8776 272.242 21.12 272.436V272.55C22.0859 272.696 22.834 273.08 23.3643 273.7C23.8994 274.321 24.1645 275.09 24.1598 276.009C24.1645 276.809 23.942 277.526 23.4922 278.161C23.0471 278.795 22.4387 279.295 21.6669 279.659C20.8951 280.019 20.0121 280.199 19.0178 280.199Z" fill="white"/>
<path d="M97.2071 274.207C97.5976 273.817 97.5976 273.183 97.2071 272.793L90.8431 266.429C90.4526 266.038 89.8195 266.038 89.4289 266.429C89.0384 266.819 89.0384 267.453 89.4289 267.843L95.0858 273.5L89.4289 279.157C89.0384 279.547 89.0384 280.181 89.4289 280.571C89.8195 280.962 90.4526 280.962 90.8431 280.571L97.2071 274.207ZM37 274.5H96.5V272.5H37V274.5Z" fill="black"/>
</svg>
